# xmcd CD database file
#
# Track frame offsets:
#	150
#	14232
#	27580
#	42182
#	55470
#	71797
#	90075
#	105660
#	114762
#	124560
#
# Disc length: 1910 seconds
#
# Revision: 1
# Processed by: cddbd v1.5.2PL0 Copyright (c) Steve Scherf et al.
# Submitted via: CDex 1.70beta2
#
DISCID=8007740a
DTITLE=Fred Field - Fred Field and Friends
DYEAR=1976
DGENRE=Country
TTITLE0=Warms Away the Coldest Night
TTITLE1=Last Train to Heaven
TTITLE2=Falling
TTITLE3=Building a House
TTITLE4=He Lives
TTITLE5=Good Old California
TTITLE6=Suffer the Little Ones
TTITLE7=Country Life
TTITLE8=That Morning 
TTITLE9=Home
EXTD=YEAR: 1976
EXTT0=
EXTT1=
EXTT2=
EXTT3=
EXTT4=
EXTT5=
EXTT6=
EXTT7=
EXTT8=
EXTT9=
PLAYORDER=
